<svg preserveAspectRatio="none" overflow="visible" style="display: block;" width="3647.92" height="494.4" viewBox="0 0 3647.92 494.4" fill="none" xmlns="http://www.w3.org/2000/svg">
<g id="Group 106">
<path id="Vector" d="M253.881 0.0505858C277.587 -0.733075 298.214 7.6616 317.693 20.1467C331.5 28.9986 342.259 40.8425 353.33 52.5796C366.146 66.1631 379.436 79.3488 393.075 92.1308C401.819 100.33 413.083 105.109 423.306 111.295C438.641 120.58 454.403 129.45 468.554 140.32C487.671 155.002 501.238 174.13 506.482 198.062C508.419 206.913 507.95 215.925 507.228 224.932C505.749 243.348 499.422 260.078 490.041 275.882C482.86 287.981 476.341 300.484 468.776 312.334C458.823 327.918 452.443 344.802 447.987 362.529C443.969 378.511 440.403 394.612 435.875 410.446C430.847 428.013 422.26 444.036 410.707 458.255C398.265 473.566 381.276 481.842 362.393 486.864C349.199 490.373 335.903 490.456 322.534 488.438C312.082 486.858 301.606 485.321 291.262 483.178C285.134 481.907 279.229 479.574 273.269 477.567C260.316 473.198 247.458 473.376 234.457 477.55C225.448 480.441 216.397 483.534 207.118 485.161C194.357 487.393 181.361 489.595 168.474 489.56C141.37 489.489 117.598 480.18 98.8047 460.262C91.5221 452.538 86.5848 443.211 81.5212 433.985C73.114 418.668 69.7162 401.855 65.681 385.131C61.0564 365.967 56.943 346.512 48.0607 328.684C43.2618 319.048 37.0977 310.084 31.7755 300.692C24.8898 288.545 17.8958 276.434 11.5333 264.02C1.05732 243.561 -1.8834 221.702 1.10543 199.154C2.52468 188.462 7.24546 178.797 13.0427 169.666C23.2661 153.571 36.2558 140.29 52.8717 130.536C66.7935 122.361 80.4207 113.676 94.5169 105.809C109.978 97.183 123.058 85.8437 135.086 73.1745C145.423 62.2804 155.484 51.131 165.894 40.3141C179.569 26.1073 199.228 9.98883 227.529 3.10212C238.281 0.478037 247.549 0.00902798 253.881 0.0505858ZM254.025 444.143C361.178 443.039 442.821 358.374 442.652 257.246C442.484 154.812 359.603 70.9422 253.923 70.9422C147.823 70.9422 65.1337 155.251 65.1458 257.495C65.1638 359.223 147.48 443.241 254.025 444.137V444.143Z" fill="#262626"/>
<g id="Group 95">
<g id="Union">
<path d="M887.314 61.3139L1004.92 355.942L1115.68 58.9218L1099.33 14.6272H1227.73L1198.75 78.6395V427.31L1244.79 481.595H1101.49L1131.14 417.571V119.209L991.15 494.4L833.732 109.6V427.298L880.471 481.595H767.629L797.285 417.571V68.9238L750.543 14.6272H900.848L887.314 61.3139Z" fill="#262626"/>
<path fill-rule="evenodd" clip-rule="evenodd" d="M1443.04 126.55C1479.05 126.55 1510.71 133.842 1537.92 148.526C1565.15 163.222 1586.13 184.425 1600.82 212.067C1615.5 239.7 1622.78 271.989 1622.78 308.842C1622.78 345.262 1615.5 377.122 1600.82 404.33L1600.82 404.333C1586.56 431.563 1565.79 452.548 1538.57 467.24L1538.58 467.243C1511.77 481.943 1479.89 489.228 1443.04 489.228C1406.6 489.228 1374.73 481.939 1347.51 467.252L1347.5 467.243C1320.72 452.557 1299.96 431.798 1285.27 405.018L1285.26 404.995L1285.25 404.969C1271 377.766 1263.92 346.118 1263.92 310.115C1263.92 273.261 1271.21 240.971 1285.89 213.337L1285.9 213.322C1300.52 186.161 1320.66 165.217 1346.27 150.568L1348.77 149.171C1375.98 134.06 1407.43 126.55 1443.04 126.55ZM1443.04 162.364C1408.69 162.364 1382.26 174.929 1363.37 199.977C1344.4 225.13 1334.71 261.285 1334.71 308.842C1334.71 355.995 1343.98 391.739 1362.12 416.469C1380.54 440.596 1407.36 452.781 1443.04 452.781C1478.28 452.781 1505.12 440.391 1523.99 415.784C1542.95 391.056 1552.63 355.542 1552.63 308.842C1552.63 261.728 1542.74 225.79 1523.36 200.636L1523.34 200.619C1504.02 175.129 1477.37 162.364 1443.04 162.364Z" fill="#262626"/>
<path fill-rule="evenodd" clip-rule="evenodd" d="M1832.51 126.55C1868.53 126.55 1900.19 133.842 1927.4 148.526C1954.63 163.222 1975.61 184.426 1990.3 212.067C2004.97 239.7 2012.26 271.989 2012.26 308.842C2012.26 345.261 2004.98 377.122 1990.3 404.33L1990.3 404.333C1976.04 431.563 1955.27 452.548 1928.05 467.24L1928.05 467.243C1901.25 481.942 1869.36 489.228 1832.51 489.228C1796.08 489.228 1764.21 481.939 1736.99 467.252L1736.97 467.243C1710.19 452.557 1689.44 431.797 1674.75 405.018L1674.74 404.995L1674.73 404.969C1660.48 377.766 1653.4 346.118 1653.4 310.115C1653.4 273.261 1660.69 240.971 1675.37 213.337L1675.38 213.322C1690 186.162 1710.13 165.217 1735.75 150.568L1738.25 149.171C1765.45 134.06 1796.91 126.55 1832.51 126.55ZM1832.51 162.364C1798.16 162.364 1771.74 174.93 1752.85 199.977C1733.88 225.13 1724.19 261.285 1724.19 308.842C1724.19 355.995 1733.46 391.739 1751.6 416.469C1770.02 440.595 1796.83 452.78 1832.51 452.781C1867.76 452.781 1894.6 440.391 1913.47 415.784C1932.43 391.056 1942.11 355.542 1942.11 308.842C1942.11 261.728 1932.22 225.79 1912.84 200.636L1912.82 200.619C1893.5 175.128 1866.85 162.364 1832.51 162.364Z" fill="#262626"/>
<path fill-rule="evenodd" clip-rule="evenodd" d="M3493.41 126.55C3540.33 126.55 3576.45 142.303 3601.28 174.078L3602.45 175.553C3626.83 206.758 3638.38 251.349 3637.54 308.885L3637.5 311.804H3393.52C3396.02 355.184 3408.1 388.154 3429.43 411.098L3431.49 413.224C3453.13 434.834 3482.97 445.784 3521.39 445.784C3543.47 445.784 3562.93 441.622 3579.84 433.378C3597.27 424.666 3616.09 410.271 3636.31 390.056L3638.15 388.207L3647.92 395.806L3646.72 398.016C3630.39 428.103 3609.05 450.993 3582.67 466.56L3582.64 466.578C3556.27 481.71 3525.64 489.228 3490.86 489.228C3456.95 489.228 3427.18 482.141 3401.66 467.865L3401.63 467.85L3401.61 467.833C3376.53 453.132 3357.07 432.582 3343.25 406.245L3343.24 406.218L3343.22 406.192C3329.84 379.428 3323.2 348.433 3323.2 313.293C3323.2 276.87 3330.27 244.6 3344.51 216.565C3358.72 188.135 3378.59 166.087 3404.1 150.519L3406.54 149.044C3431.92 134.027 3460.9 126.55 3493.41 126.55ZM3490.86 162.364C3462.01 162.364 3439.13 172.823 3421.93 193.715L3421.91 193.738C3405.12 213.721 3395.35 242.088 3392.9 279.171H3575.64C3575.29 240.671 3567.93 211.841 3553.96 192.283C3539.75 172.397 3518.88 162.364 3490.86 162.364Z" fill="#262626"/>
<path d="M2510.29 196.373L2594.87 408.443L2684.23 192.381L2637.97 138.634H2869.23V429.199L2914.73 481.595H2773.87L2802.89 418.844V203.138L2746.71 140.355L2603.92 485.488L2603.16 487.319H2559.15L2438.41 197.938L2381.17 138.634H2537.15L2510.29 196.373Z" fill="#262626"/>
<path d="M2263.52 127.186C2298.61 127.186 2325.82 139.143 2344.71 163.298C2363.5 187.337 2372.68 221.795 2372.68 266.237V430.469L2416.9 481.595H2277.31L2305.71 420.741V268.143C2305.71 236.603 2300.18 213.475 2289.55 198.302C2279.07 183.322 2263.36 175.718 2241.9 175.718C2218.97 175.718 2198.48 184.083 2180.33 200.995L2180.3 201.021C2162.22 217.46 2148.94 240.126 2140.57 269.204V429.199L2186.07 481.595H2045.22L2074.23 418.844V203.138L2016.52 138.634H2134.85V212.484C2147.82 187.24 2164.25 167.232 2184.18 152.564C2207.19 135.637 2233.67 127.186 2263.52 127.186Z" fill="#262626"/>
<path d="M3159.95 127.186C3195.04 127.186 3222.25 139.143 3241.14 163.298C3259.93 187.337 3269.11 221.795 3269.11 266.237V430.469L3313.33 481.595H3173.74L3202.14 420.741V268.143C3202.14 236.602 3196.6 213.475 3185.98 198.302C3175.49 183.322 3159.78 175.718 3138.33 175.718C3115.4 175.718 3094.9 184.083 3076.75 200.995L3076.73 201.021C3058.65 217.459 3045.37 240.127 3037 269.204V429.199L3082.5 481.595H2941.65L2970.66 418.844V203.138L2912.95 138.634H3031.28V212.484C3044.25 187.24 3060.68 167.232 3080.61 152.564C3103.62 135.637 3130.1 127.186 3159.95 127.186Z" fill="#262626"/>
<path d="M2835.74 0.000183111C2847.09 0.000447743 2856.76 3.89348 2864.54 11.6798C2872.35 19.4905 2876.22 29.382 2876.22 41.1189C2876.22 52.824 2872.37 62.6907 2864.6 70.4915C2857.19 78.3643 2847.48 82.2345 2835.74 82.2348C2824 82.2348 2814.11 78.3685 2806.3 70.5581L2806.24 70.4944C2798.88 62.6738 2795.26 52.803 2795.26 41.1189C2795.26 29.3813 2799.13 19.4902 2806.94 11.6798C2814.72 3.89386 2824.39 0.000183111 2835.74 0.000183111Z" fill="#262626"/>
</g>
</g>
</g>
</svg>
